<?xml version="1.0" standalone="no"?>
<!DOCTYPE svg PUBLIC "-//W3C//DTD SVG 20010904//EN"
 "http://www.w3.org/TR/2001/REC-SVG-20010904/DTD/svg10.dtd">
<svg version="1.0" xmlns="http://www.w3.org/2000/svg"
 width="782.000000pt" height="409.000000pt" viewBox="0 0 782.000000 409.000000"
 preserveAspectRatio="xMidYMid meet">

<g transform="translate(0.000000,409.000000) scale(0.100000,-0.100000)"
fill="#000000" stroke="none">
<path d="M0 2045 l0 -2045 2307 2 c2271 3 2308 3 2311 22 5 25 26 46 45 46 8
0 20 7 27 15 10 12 7 19 -17 40 l-28 27 39 -6 c21 -3 47 -13 58 -23 19 -17 20
-17 33 0 9 12 26 17 61 17 98 0 267 21 287 35 12 8 35 15 52 15 16 0 64 9 105
20 41 11 87 20 102 20 16 0 31 8 37 19 6 10 23 21 38 24 16 3 53 11 83 17 65
14 186 9 470 -19 113 -11 261 -23 330 -27 69 -3 148 -11 175 -16 28 -5 95 -17
150 -26 55 -10 110 -23 123 -30 26 -15 178 -62 199 -62 8 0 29 -11 47 -25 18
-14 36 -25 41 -25 4 0 30 -13 57 -30 l48 -30 320 0 320 0 0 2045 0 2045 -3910
0 -3910 0 0 -2045z m3815 1549 c74 -14 96 -19 150 -40 11 -4 25 -8 30 -9 29
-7 155 -61 185 -80 19 -12 58 -32 85 -45 85 -40 223 -161 308 -270 28 -36 57
-72 64 -80 7 -8 22 -26 32 -39 l18 -25 -52 -70 c-29 -39 -69 -97 -89 -128 -20
-32 -40 -58 -45 -58 -4 0 -18 24 -31 53 -23 51 -124 207 -159 243 -10 10 -37
35 -61 54 -24 19 -51 42 -59 51 -30 30 -111 80 -189 116 -42 21 -79 40 -82 44
-14 20 -137 41 -265 46 -129 5 -148 3 -237 -20 -131 -35 -292 -114 -353 -174
-19 -18 -37 -33 -40 -33 -10 0 -55 -52 -55 -64 0 -20 -80 -137 -98 -143 -21
-8 -42 -35 -35 -45 2 -5 -3 -11 -11 -14 -9 -3 -16 -15 -16 -25 0 -10 -5 -19
-11 -19 -6 0 -9 -7 -5 -15 8 -22 -11 -65 -29 -65 -13 0 -14 -4 -5 -21 7 -11 8
-28 4 -37 -7 -17 -12 -87 -13 -168 -1 -32 -6 -43 -23 -52 -22 -10 -22 -11 -2
-11 17 -1 21 -8 22 -38 2 -58 12 -110 39 -208 28 -101 46 -146 78 -190 12 -16
32 -51 46 -77 13 -27 27 -48 31 -48 5 0 8 -4 8 -9 0 -20 122 -150 198 -211 73
-59 252 -149 307 -155 6 -1 17 -4 25 -7 58 -23 185 -38 285 -34 91 4 125 10
195 36 47 17 110 45 140 62 65 36 171 119 200 155 12 16 24 23 29 17 8 -8 66
-220 78 -285 4 -22 -3 -30 -51 -61 -103 -67 -236 -123 -421 -178 -48 -14 -251
-19 -313 -8 -23 4 -66 10 -94 13 -98 12 -324 102 -404 162 -17 13 -34 23 -39
23 -14 0 -99 72 -186 159 -94 94 -178 202 -208 266 -22 45 -60 99 -61 84 -1
-48 -214 -188 -350 -231 -125 -40 -353 -41 -425 -4 -16 9 -37 16 -46 16 -32 0
-190 73 -227 104 -101 85 -182 159 -196 181 -22 33 -56 30 -73 -7 -16 -31 -91
-81 -176 -116 -132 -54 -354 -38 -487 34 -102 56 -236 162 -281 222 -192 254
-258 703 -142 966 73 166 178 280 315 344 116 55 158 65 263 65 116 0 163 -13
345 -97 13 -6 55 -40 92 -75 56 -52 68 -69 68 -95 0 -34 -58 -157 -77 -163 -6
-2 -20 4 -30 15 -117 125 -171 173 -231 203 -62 30 -75 33 -167 33 -94 1 -104
-1 -169 -33 -128 -64 -236 -205 -270 -355 -24 -103 -23 -273 2 -372 58 -230
178 -393 347 -474 83 -40 84 -40 205 -40 104 0 127 3 163 21 64 33 103 66 144
123 39 53 52 66 67 66 6 0 1 -7 -10 -15 -18 -14 -18 -14 5 -15 16 0 21 -4 18
-14 -4 -10 -1 -13 9 -9 17 6 19 -8 2 -25 -9 -9 -8 -12 4 -12 9 0 20 4 23 10 3
6 12 10 18 10 7 -1 -1 -12 -18 -25 -36 -30 -25 -45 15 -21 37 21 39 13 4 -19
-32 -30 -13 -33 23 -5 28 22 43 25 43 10 0 -6 -11 -16 -25 -22 -14 -6 -25 -15
-25 -20 0 -5 13 0 29 11 36 26 52 26 79 1 12 -11 26 -20 33 -20 8 0 8 -4 -1
-15 -8 -10 -9 -15 -2 -15 6 0 9 -6 6 -14 -4 -11 0 -13 14 -9 11 2 23 0 26 -6
4 -6 17 -11 29 -11 13 0 32 -6 43 -14 11 -8 67 -38 124 -67 97 -49 111 -53
209 -63 185 -17 309 18 427 120 40 35 76 64 80 64 3 0 17 9 31 20 34 26 35 26
57 -15 11 -19 23 -35 28 -35 10 0 11 14 1 24 -8 8 -7 4 -39 146 -35 159 -38
398 -5 540 53 236 143 399 311 569 62 63 121 110 165 131 17 8 32 17 35 20 14
14 86 51 165 85 175 75 405 102 590 69z m-1670 -63 c17 -7 17 -8 -8 -13 -19
-4 -27 -1 -27 8 0 15 6 16 35 5z m111 -36 c10 -8 27 -15 37 -15 9 0 17 -4 17
-10 0 -5 5 -10 10 -10 6 0 22 -11 36 -25 14 -14 31 -25 38 -25 7 0 22 -11 32
-25 10 -14 27 -25 36 -25 10 0 18 -5 18 -10 0 -14 57 -70 71 -70 6 0 8 -4 4
-9 -3 -6 3 -25 14 -44 11 -19 17 -38 14 -41 -4 -3 3 -6 15 -6 13 0 22 -6 22
-16 0 -12 7 -14 33 -9 l32 8 -25 -21 c-14 -12 -19 -21 -12 -22 34 -1 -20 -80
-55 -80 -29 0 -40 -24 -23 -55 7 -13 10 -29 7 -37 -3 -8 -11 0 -21 22 -29 59
-42 79 -82 126 -22 24 -61 70 -89 103 -46 54 -141 132 -189 156 -24 12 -35 55
-14 55 7 0 22 -7 32 -15 28 -21 41 -19 60 10 14 21 14 24 1 19 -11 -4 -15 0
-15 16 0 20 -2 21 -17 9 -14 -13 -16 -11 -11 13 4 19 1 25 -9 21 -7 -3 -13 2
-13 11 0 20 20 21 46 1z m4009 -64 c192 -36 209 -41 260 -66 28 -13 54 -25 58
-25 16 0 232 -112 287 -148 30 -20 81 -55 112 -79 31 -24 60 -44 65 -44 4 -1
60 -56 124 -123 316 -332 470 -704 470 -1135 -1 -247 -14 -315 -107 -559 -57
-148 -77 -186 -128 -241 -23 -25 -62 -73 -86 -106 -57 -79 -164 -190 -217
-227 -24 -16 -43 -34 -43 -41 0 -12 -63 -67 -76 -67 -4 0 -15 -6 -23 -14 -29
-26 -244 -132 -326 -161 -44 -16 -85 -32 -90 -36 -22 -16 -222 -49 -338 -55
-229 -12 -504 28 -677 99 -14 5 -36 14 -50 19 -123 48 -287 133 -365 190 -27
21 -73 50 -101 67 -65 38 -188 154 -268 251 -33 41 -65 80 -72 85 -10 9 -76
107 -101 150 -30 52 -103 204 -103 214 0 6 -4 19 -10 29 -24 43 -64 189 -85
310 -54 306 -5 640 132 907 112 218 235 364 428 509 157 119 363 226 510 265
45 12 241 48 295 55 19 2 121 3 225 1 142 -2 218 -8 300 -24z m-5585 -1579
c43 -12 93 -38 147 -75 74 -50 133 -77 171 -77 32 0 152 -33 152 -41 0 -12
-31 -24 -101 -39 -63 -14 -212 1 -261 26 -15 8 -45 14 -66 14 -68 0 -99 11
-143 51 -24 21 -46 39 -50 39 -4 0 -12 14 -19 31 -10 22 -10 33 -1 42 6 6 11
7 11 3 0 -4 14 4 31 18 36 31 45 31 129 8z"/>
<path d="M220 2860 c-19 -12 -20 -254 -2 -320 20 -74 60 -164 101 -233 22 -35
26 -37 60 -31 20 4 38 8 40 10 2 2 -8 22 -23 44 -14 22 -26 50 -26 62 0 13 -9
42 -19 65 -30 65 -42 139 -44 281 -1 73 -4 132 -7 132 -4 0 -11 -5 -17 -11 -8
-8 -17 -8 -30 -1 -11 6 -25 7 -33 2z"/>
<path d="M2708 2413 c7 -3 16 -2 19 1 4 3 -2 6 -13 5 -11 0 -14 -3 -6 -6z"/>
<path d="M1406 2052 c-4 -7 -2 -12 4 -12 7 0 9 -8 5 -21 -6 -18 -5 -19 14 -7
24 15 27 28 7 28 -8 0 -16 5 -18 12 -3 9 -6 9 -12 0z"/>
<path d="M1460 2049 c0 -5 5 -7 10 -4 6 3 10 8 10 11 0 2 -4 4 -10 4 -5 0 -10
-5 -10 -11z"/>
<path d="M1447 2003 c-4 -3 -7 -11 -7 -17 0 -6 5 -5 12 2 6 6 9 14 7 17 -3 3
-9 2 -12 -2z"/>
<path d="M1536 1994 c-5 -14 -4 -15 9 -4 17 14 19 20 6 20 -5 0 -12 -7 -15
-16z"/>
<path d="M2605 1970 c3 -5 8 -10 11 -10 2 0 4 5 4 10 0 6 -5 10 -11 10 -5 0
-7 -4 -4 -10z"/>
<path d="M2227 1779 c-10 -11 -17 -23 -15 -25 6 -6 48 26 48 37 0 15 -14 10
-33 -12z"/>
<path d="M5675 3083 c-197 -26 -341 -82 -518 -201 -173 -117 -312 -309 -417
-577 -22 -56 -50 -230 -51 -320 -3 -285 79 -536 253 -766 94 -124 127 -160
221 -237 252 -205 542 -305 877 -303 267 3 470 67 670 214 97 71 208 176 245
232 20 30 39 55 43 55 11 0 72 125 112 229 77 199 108 501 71 679 -16 78 -61
198 -104 279 -9 18 -17 38 -17 45 0 38 -134 213 -252 330 -70 69 -198 168
-216 168 -4 0 -18 10 -32 23 -66 61 -244 121 -436 147 -169 23 -293 24 -449 3z
m1155 -378 c20 -24 6 -28 -15 -5 -10 11 -13 20 -8 20 6 0 16 -7 23 -15z m110
-220 c7 -9 8 -15 2 -15 -5 0 -12 7 -16 15 -3 8 -4 15 -2 15 2 0 9 -7 16 -15z
m34 -51 c3 -8 2 -12 -4 -9 -6 3 -10 10 -10 16 0 14 7 11 14 -7z m24 -49 c-3
-3 -9 2 -12 12 -6 14 -5 15 5 6 7 -7 10 -15 7 -18z m42 -67 c11 -24 20 -50 20
-58 0 -8 -11 9 -25 38 -27 58 -28 62 -20 62 4 0 15 -19 25 -42z m59 -173 c39
-128 51 -205 51 -350 0 -158 -12 -230 -65 -380 -82 -241 -203 -377 -475 -540
-36 -21 -67 -42 -71 -47 -9 -13 -120 -55 -202 -77 -181 -47 -418 -52 -587 -11
-143 34 -290 91 -290 112 0 12 18 10 43 -6 12 -8 38 -17 57 -21 19 -4 40 -11
45 -16 13 -10 103 -25 94 -15 -3 3 -23 12 -45 20 -29 11 -33 14 -14 14 14 -1
36 2 50 5 14 4 19 4 13 1 -7 -3 -13 -10 -13 -15 0 -16 27 -9 46 12 17 19 26
21 94 15 41 -3 101 -8 133 -10 60 -5 91 -16 44 -16 -15 0 -27 -4 -27 -10 0 -5
16 -10 35 -10 28 0 35 -4 35 -20 0 -18 -7 -20 -57 -20 -31 0 -54 -3 -50 -6 17
-18 306 2 381 26 17 5 68 21 113 35 44 14 91 35 104 46 12 10 26 19 31 19 12
0 115 66 141 91 12 12 34 27 48 34 83 44 299 339 299 410 0 9 9 42 19 73 72
212 66 505 -15 727 -5 13 -4 17 3 10 6 -5 20 -41 32 -80z m-1882 -320 l38 -33
25 22 c29 27 84 44 169 52 41 5 61 3 61 -4 0 -6 -4 -14 -10 -17 -5 -3 -10 -15
-10 -26 0 -13 -10 -24 -29 -30 -44 -15 -57 -48 -41 -104 13 -46 13 -47 -16
-71 -16 -13 -33 -23 -38 -24 -4 0 -6 -8 -4 -18 5 -16 1 -18 -22 -13 -37 8 -89
73 -134 166 -21 41 -43 75 -51 75 -14 0 -25 21 -25 49 0 27 42 15 87 -24z
m1573 -195 c10 0 22 5 25 10 3 6 13 10 22 10 11 0 4 -15 -22 -51 l-37 -52 30
22 c33 23 52 27 52 10 0 -20 24 -3 31 22 l7 24 1 -26 c2 -41 -29 -132 -54
-159 -26 -29 -55 -86 -55 -110 0 -9 -16 -31 -35 -50 -27 -26 -35 -30 -35 -16
0 10 -5 14 -11 10 -6 -3 -8 -15 -5 -27 6 -24 -28 -77 -50 -77 -8 0 -17 -7 -20
-15 -9 -22 -24 -18 -24 6 0 18 -4 21 -30 16 -23 -5 -32 -2 -41 14 -8 15 -18
20 -36 16 -24 -4 -24 -4 6 27 17 18 31 36 31 42 0 15 98 114 114 114 7 0 19 7
26 15 18 22 24 11 8 -14 -9 -14 -9 -24 -2 -31 12 -12 68 66 58 82 -4 6 -10 6
-17 -1 -16 -16 -27 -13 -27 7 0 10 -5 23 -11 29 -7 7 0 17 25 33 20 12 36 27
36 33 0 8 -4 7 -12 -1 -21 -21 -37 -13 -36 16 1 20 9 33 29 45 18 10 29 25 30
39 1 17 3 18 6 6 2 -10 13 -18 23 -18z m-334 -455 c-11 -8 -25 -15 -30 -15 -6
0 -2 7 8 15 11 8 25 15 30 15 6 0 2 -7 -8 -15z m34 -75 c0 -5 -5 -10 -11 -10
-5 0 -7 5 -4 10 3 6 8 10 11 10 2 0 4 -4 4 -10z m-77 -48 c-13 -2 -23 -7 -23
-11 0 -4 -35 -16 -77 -26 -43 -10 -82 -21 -88 -25 -13 -10 -61 -21 -108 -26
-27 -2 -39 1 -44 12 -3 8 -3 17 -1 19 2 3 45 9 94 14 49 5 104 17 122 26 18 9
39 14 47 11 8 -3 15 -1 15 5 0 6 9 8 20 4 14 -5 20 -2 20 10 0 13 3 14 23 3
l22 -13 -22 -3z m-543 -52 c0 -5 3 -16 6 -25 5 -13 2 -16 -17 -13 -17 2 -25
10 -27 30 -3 22 0 26 17 21 12 -3 21 -9 21 -13z m-60 -10 c0 -5 -4 -10 -10
-10 -5 0 -10 5 -10 10 0 6 5 10 10 10 6 0 10 -4 10 -10z m-370 -120 c8 -5 11
-10 5 -10 -5 0 -17 5 -25 10 -8 5 -10 10 -5 10 6 0 17 -5 25 -10z m684 -86
c20 -8 11 -24 -15 -24 -19 0 -25 11 -12 23 8 8 8 8 27 1z"/>
<path d="M5765 830 c-3 -5 -2 -10 4 -10 5 0 17 -3 25 -6 12 -5 15 -2 10 10 -7
18 -29 21 -39 6z"/>
<path d="M5900 809 c0 -5 5 -7 10 -4 6 3 10 8 10 11 0 2 -4 4 -10 4 -5 0 -10
-5 -10 -11z"/>
<path d="M5847 767 c-4 -10 5 -14 31 -14 21 0 28 2 17 4 -11 3 -25 9 -31 14
-8 6 -14 5 -17 -4z"/>
<path d="M6772 1410 c-22 -21 -30 -50 -14 -50 12 0 52 44 52 58 0 18 -13 15
-38 -8z"/>
<path d="M6637 1282 c-17 -18 -23 -42 -11 -42 8 0 43 43 44 53 0 13 -17 7 -33
-11z"/>
</g>
</svg>
