<svg width="188" height="188" viewBox="0 0 188 188" fill="none" xmlns="http://www.w3.org/2000/svg">
<path d="M125.334 70.5C125.334 112.252 62.6673 112.252 62.6673 70.5H78.334C78.334 91.415 109.667 91.415 109.667 70.5M156.667 141V164.5H31.334V141C31.334 120.085 73.0857 109.667 94.0007 109.667C114.916 109.667 156.667 120.085 156.667 141ZM141.784 141C141.784 135.987 117.266 124.55 94.0007 124.55C70.7357 124.55 46.2173 135.987 46.2173 141V149.617H141.784M97.9173 15.6667C100.111 15.6667 101.834 17.39 101.834 19.5834V43.0834H109.667V23.5C115.211 26.0656 119.856 30.2382 122.999 35.4763C126.141 40.7144 127.637 46.7762 127.292 52.875C127.292 52.875 132.776 53.9717 133.167 62.6667H54.834C54.834 53.9717 60.709 52.875 60.709 52.875C60.3639 46.7762 61.8599 40.7144 65.0028 35.4763C68.1456 30.2382 72.7903 26.0656 78.334 23.5V43.0834H86.1673V19.5834C86.1673 17.39 87.8907 15.6667 90.084 15.6667" fill="white"/>
</svg>
