<svg width="188" height="188" viewBox="0 0 188 188" fill="none" xmlns="http://www.w3.org/2000/svg">
<path d="M167.711 89.3783L98.5427 20.21C95.6443 17.3117 91.6494 15.6667 87.4977 15.6667H31.3327C22.716 15.6667 15.666 22.7167 15.666 31.3334V87.4984C15.666 91.65 17.311 95.645 20.2877 98.5434L89.456 167.712C95.566 173.822 105.514 173.822 111.624 167.712L167.789 111.547C173.899 105.437 173.899 95.5667 167.711 89.3783ZM100.501 156.667L31.3327 87.4984V31.3334H87.4977L156.666 100.502L100.501 156.667Z" fill="white"/>
<path d="M50.916 62.6667C57.4054 62.6667 62.666 57.406 62.666 50.9167C62.666 44.4273 57.4054 39.1667 50.916 39.1667C44.4267 39.1667 39.166 44.4273 39.166 50.9167C39.166 57.406 44.4267 62.6667 50.916 62.6667Z" fill="white"/>
</svg>
